<?xml version="1.0" encoding="utf-8"?>
<!-- Generator: Adobe Illustrator 22.0.1, SVG Export Plug-In . SVG Version: 6.00 Build 0)  -->
<svg version="1.1" id="Layer_1" xmlns="http://www.w3.org/2000/svg" xmlns:xlink="http://www.w3.org/1999/xlink" x="0px" y="0px"
	 viewBox="0 0 512 512" style="enable-background:new 0 0 512 512;" xml:space="preserve">
<style type="text/css">
	.st0{fill:#35216D;}
	.st1{fill:#EDF3FC;}
	.st2{fill:#330D84;}
	.st3{fill:#FFBE1B;}
	.st4{fill:#0061F3;}
	.st5{fill:#8C7BFD;}
	.st6{fill:#FFFFFF;}
	.st7{fill:#5932AE;}
	.st8{fill:#1C46C4;}
	.st9{fill:#6857E5;}
	.st10{fill:#5D8EF9;}
	.st11{fill:#8AC9F9;}
	.st12{fill:#FFE37B;}
	.st13{fill:#FFD000;}
	.st14{fill:#2EF39E;}
	.st15{fill:#330D84;stroke:#330D84;stroke-width:0.6306;stroke-linecap:round;stroke-linejoin:round;stroke-miterlimit:10;}
	.st16{fill:#FFFFFF;stroke:#FFFFFF;stroke-width:0.737;stroke-linecap:round;stroke-linejoin:round;stroke-miterlimit:10;}
	.st17{fill:none;}
	.st18{fill:#FDB813;}
</style>
<g>
	<g>
		<g>
			<path class="st1" d="M255.999,40.928c-118.778,0-215.071,96.294-215.071,215.074c0,118.776,96.292,215.068,215.071,215.068
				S471.07,374.778,471.07,256.002C471.07,137.222,374.777,40.928,255.999,40.928z"/>
		</g>
	</g>
	<g>
		<g>
			<path class="st1" d="M255.999,1C115.391,1,1,115.392,1,256.002C1,396.609,115.391,511,255.999,511S511,396.609,511,256.002
				C511,115.392,396.607,1,255.999,1z M255.999,502.832c-136.103,0-246.83-110.728-246.83-246.83
				c0-136.104,110.727-246.833,246.83-246.833c136.102,0,246.832,110.729,246.832,246.833
				C502.831,392.104,392.101,502.832,255.999,502.832z"/>
		</g>
	</g>
	<path class="st10" d="M377.3,134.947l2.161,0.541l-2.161,0.541c-12.652,3.17-22.526,13.047-25.695,25.7l-0.544,2.158l-0.542-2.158
		c-3.169-12.652-13.046-22.53-25.701-25.7l-2.153-0.541l2.153-0.541c12.656-3.17,22.532-13.05,25.701-25.695l0.542-2.156
		l0.544,2.156C354.774,121.897,364.648,131.777,377.3,134.947L377.3,134.947z"/>
	<path class="st10" d="M422.607,183.756l1.542,0.386l-1.542,0.386c-9.025,2.261-16.069,9.307-18.33,18.333l-0.388,1.54l-0.387-1.54
		c-2.261-9.025-9.306-16.071-18.334-18.333l-1.536-0.386l1.536-0.386c9.028-2.261,16.073-9.309,18.334-18.33l0.387-1.538
		l0.388,1.538C406.538,174.446,413.581,181.494,422.607,183.756L422.607,183.756z"/>
	<path class="st3" d="M127.554,241.001l1.362,0.341l-1.362,0.341c-7.975,1.998-14.2,8.225-16.197,16.2l-0.343,1.36l-0.342-1.36
		c-1.998-7.975-8.224-14.202-16.201-16.2l-1.357-0.341l1.357-0.341c7.978-1.998,14.203-8.226,16.201-16.197l0.342-1.359l0.343,1.359
		C113.354,232.774,119.578,239.002,127.554,241.001L127.554,241.001z"/>
	<path class="st3" d="M132.867,312.826l2.541,0.637l-2.541,0.637c-14.877,3.728-26.488,15.342-30.215,30.22l-0.64,2.538
		l-0.638-2.538c-3.727-14.878-15.34-26.492-30.222-30.22l-2.532-0.637l2.532-0.637c14.882-3.728,26.495-15.345,30.222-30.215
		l0.638-2.536l0.64,2.536C106.379,297.48,117.989,309.098,132.867,312.826L132.867,312.826z"/>
	<path class="st3" d="M376.592,256c0,66.602-53.993,120.591-120.595,120.591c-66.599,0-120.589-53.989-120.589-120.591
		s53.99-120.591,120.589-120.591C322.599,135.409,376.592,189.398,376.592,256z"/>
	<path class="st7" d="M255.997,376.591c30.038,0,57.489-11.006,78.599-29.173c-1.175-11.783-9.318-21.856-20.837-25.325
		l-18.466-5.566c0,0-6.064-1.765-6.953-2.062c-5.631-1.892-9.977-3.883-10.932-6.859c-0.807-2.515-1.218-5.109-1.388-7.595
		c-0.1,0.061-0.204,0.113-0.305,0.173c2.302-1.355,4.629-2.894,6.997-4.744c9.858-7.708,19.025-16.442,19.025-26.248
		c0-1.229-0.041-3.197-0.11-5.697c0.697,0.134,1.432,0.132,2.117-0.204c2.296-1.123,4.397-10.148,5.169-13.064
		c0.766-2.916,1.002-7.027-2.299-9.713c-0.82-0.666-1.724-0.881-2.625-0.831c0.097-0.691,0.195-1.404,0.292-2.15
		c0.952-7.135,10.373-31.348-3.015-47.648c-5.047-6.149-11.356-9.28-18.331-8.424c-5.311-6.91-18.745-9.278-31.59-7.561
		c-14.166,1.894-22.376,4.255-32.56,11.156c-5.825,3.948-16.057,13.326-17.552,24.82c-1.369,10.505,1.288,22.46,3.31,29.806
		c-0.886-0.041-1.774,0.174-2.578,0.831c-3.301,2.687-3.065,6.797-2.299,9.713c0.766,2.916,2.87,11.941,5.169,13.064
		c1.818,0.887,3.979-0.416,4.805-0.999c-0.009,1.476-0.016,2.91-0.016,4.246c0,11.628,7.163,19.143,17.787,27.248
		c2.742,2.092,6.039,4.21,9.33,6.14c-0.166,2.512-0.578,5.136-1.394,7.68c-0.581,1.815-3.046,3.433-6.369,4.964
		c-2.06,0.951-14.732,4.896-14.732,4.896l-15.868,4.695c-11.557,3.422-19.75,13.476-20.969,25.267
		C198.521,365.588,225.968,376.591,255.997,376.591z"/>
	<path class="st2" d="M414.889,351.624l2.551,0.639l-2.551,0.639c-14.936,3.742-26.593,15.403-30.334,30.339l-0.642,2.548
		l-0.64-2.548c-3.741-14.936-15.401-26.597-30.342-30.339l-2.542-0.639l2.542-0.639c14.941-3.742,26.6-15.406,30.342-30.334
		l0.64-2.546l0.642,2.546C388.296,336.218,399.953,347.881,414.889,351.624L414.889,351.624z"/>
</g>
</svg>
